<?xml version="1.0" encoding="UTF-8"?>
<svg id="Layer_1" data-name="Layer 1" xmlns="http://www.w3.org/2000/svg" xmlns:xlink="http://www.w3.org/1999/xlink" viewBox="0 0 4789.24 3228.54">
  <defs>
    <style>
      .cls-1 {
        fill: url(#linear-gradient-2);
      }

      .cls-2 {
        fill: url(#linear-gradient);
      }

      .cls-3 {
        fill: #02b7db;
      }
    </style>
    <linearGradient id="linear-gradient" x1="1853.97" y1="293.9" x2="2165.76" y2="293.9" gradientUnits="userSpaceOnUse">
      <stop offset="0" stop-color="#2a80ff"/>
      <stop offset="1" stop-color="#00b6dc"/>
    </linearGradient>
    <linearGradient id="linear-gradient-2" x1="1851.93" y1="200.57" x2="2159.63" y2="200.57" xlink:href="#linear-gradient"/>
  </defs>
  <g>
    <path class="cls-3" d="M2275.95,349.98v-1.69c-14.74,0-28.35-2.46-40.54-7.24-12.18-4.77-22.93-11.85-31.95-21.12-16.35-16.82-25.36-39.28-25.36-63.29v-124.83c0-8.99,3.52-16.83,9.89-22.25,5.57-4.73,12.99-7.37,20.89-7.37,8.94,0,16.4,3.07,21.66,8.25,5.25,5.19,8.34,12.54,8.35,21.36v32.41h16.13c9,0,16.85,3.45,22.27,9.67,4.78,5.48,7.44,12.78,7.44,20.56,0,7.44-2.57,14.91-7.54,20.48-2.49,2.79-5.57,5.1-9.25,6.73-3.69,1.63-7.98,2.57-12.92,2.57h-16.17l-.03,1.66c-.12,8.19-.4,14.46-.57,18.26-.04.89-.08,1.71-.1,2.4-.03.69-.04,1.22-.04,1.57,0,6.22.49,11.54,1.53,16.12,1.04,4.58,2.65,8.42,4.87,11.63,2.92,4.22,7.06,7.37,12.31,9.4,5.25,2.04,11.6,3.01,19.13,3.01,9.03,0,16.89,3.42,22.3,9.56,4.77,5.43,7.42,12.68,7.42,20.44,0,7.76-2.65,15.01-7.42,20.44-5.4,6.15-13.26,9.56-22.3,9.56v3.37c9.88,0,18.76-3.79,24.83-10.71,5.34-6.09,8.26-14.14,8.26-22.66,0-8.52-2.91-16.58-8.26-22.66-6.07-6.93-14.95-10.72-24.83-10.71-7.24,0-13.19-.94-17.91-2.78-4.72-1.84-8.23-4.54-10.76-8.18-1.94-2.8-3.39-6.21-4.36-10.46-.97-4.25-1.45-9.32-1.45-15.37,0-.24.02-.77.04-1.44.03-.67.06-1.5.1-2.38.17-3.81.44-10.12.57-18.35l-1.69-.03v1.69h14.51c5.37,0,10.15-1.03,14.28-2.86,6.2-2.74,10.93-7.26,14.07-12.61,3.14-5.35,4.73-11.53,4.73-17.68,0-8.54-2.92-16.64-8.27-22.77-6.09-6.99-14.96-10.83-24.82-10.82h-12.76v-29.04c0-9.61-3.42-17.91-9.35-23.76-5.92-5.86-14.31-9.23-24.03-9.23-8.65,0-16.84,2.88-23.07,8.17-7.15,6.07-11.09,14.94-11.08,24.81v124.83c0,24.86,9.34,48.19,26.32,65.64,18.7,19.24,44.69,29.39,74.9,29.38v-1.69Z"/>
    <path class="cls-3" d="M2208.88,108.95c12.02,0,23.26,7.37,23.26,22.87v39.16h22.87c30.24,0,31.01,46.52,0,46.52h-22.87c0,17.06-.78,27.91-.78,30.63,0,21.71,5.43,46.91,44.58,46.91,30.63,0,30.63,46.52,0,46.52-58.93,0-91.11-41.87-91.11-84.9v-124.83c0-15.12,12.02-22.87,24.04-22.87Z"/>
    <path class="cls-3" d="M2423.1,349.98v-1.69c-28.37,0-56.57-11.03-77.28-30.25-22.02-20.43-34.14-48.26-34.14-78.46,0-29.77,11.81-57.44,33.29-78,20.96-20.05,48.55-31.09,77.74-31.09,11.67,0,21.53,1.4,32.15,4.54h0c16.88,4.93,30.1,12.79,40.39,21.47,10.29,8.68,17.64,18.2,22.73,26.41,14.39,23.22,16.52,43.8,16.52,53.95,0,2.32,0,6.88-1.07,11.94-1.07,5.06-3.2,10.55-7.32,14.76l-.02.03-.02.02c-2.85,3.16-5.72,5.02-8.35,6.11-2.64,1.09-5.05,1.41-7,1.41-2.55,0-5.13-.45-8.22-1.47h-.02s-.02-.01-.02-.01c-12.07-3.65-24.68-5.49-37.48-5.49-10.95,0-21.61,1.26-30.87,3.66l-.18.05-.19.04h0c-2.2.44-4.57.91-7.14.91-5.97,0-11.75-2.56-16.3-6.34-2.28-1.89-4.24-4.07-5.76-6.34-1.52-2.27-2.59-4.64-3.11-6.86l-.09-.4-.05-.4c-.13-1.13-.25-2.14-.36-3.02-.26-2.09-.46-3.68-.45-5.09,0-7.15,2.08-13.12,5.84-17.67,3.76-4.55,9.25-7.73,16.28-9.1l-.32-1.65.3,1.66.19-.03-.3-1.66.28,1.66c13.45-2.31,25.46-3.59,36.55-3.9l3.63-.1-2.43-2.71c-9.05-10.1-22.44-15.96-37.39-15.96-10,0-19.19,2.48-26.98,7.15-7.79,4.67-14.17,11.52-18.58,20.18l-.04.08h0c-3.59,6.84-5.43,13.88-5.43,20.9h0s0,.74,0,.74h0c0,.26,0,.58,0,.92,0,2.16.13,5.67,1.31,10.05,1.18,4.38,3.4,9.64,7.51,15.38l1.37-.98-1.38.96.14.2,1.38-.96-1.4.94c9.51,14.11,24.92,22.24,42.1,22.23,7.91,0,15.86-1.97,23.59-5.8h.03s.03-.03.03-.03c5.22-2.86,10.47-3.47,13.96-3.47,7.04,0,13.49,2.67,18.54,6.62,5.05,3.94,8.66,9.17,10,14.04v.04s.02.04.02.04c.72,2.17,1.28,4.02,1.65,5.7.37,1.68.56,3.2.56,4.73,0,1.13,0,2.75-.26,4.71-.4,2.93-1.37,6.59-3.82,10.32-2.45,3.72-6.37,7.55-12.83,10.78h.01c-16.55,8.06-33.32,11.95-51.49,11.96v3.37c18.65,0,36-4.02,52.97-12.3h0s0,0,0,0c4.62-2.31,8.13-4.96,10.78-7.73,3.98-4.16,6-8.57,7-12.37,1-3.79,1-7,1-8.72,0-1.82-.23-3.6-.64-5.46-.41-1.86-1-3.82-1.74-6.04l-1.6.53,1.62-.45c-1.61-5.72-5.62-11.43-11.18-15.79-5.56-4.35-12.72-7.33-20.62-7.33-3.87,0-9.69.67-15.58,3.88l.81,1.48-.75-1.51c-7.31,3.63-14.73,5.45-22.09,5.45-16.12-.01-30.38-7.55-39.3-20.74h0s-.15-.22-.15-.22h0s0-.02,0-.02c-3.88-5.41-5.92-10.28-7-14.29-1.08-4.01-1.19-7.15-1.2-9.17,0-.32,0-.62,0-.89v-.75s0-.01,0-.01c0-6.42,1.68-12.91,5.05-19.34l.05-.1h0c4.14-8.13,10.07-14.48,17.31-18.83,7.24-4.34,15.8-6.67,25.24-6.67,14.08,0,26.51,5.49,34.88,14.84l1.26-1.12-.05-1.68c-11.28.32-23.45,1.62-37.02,3.95h0s-.19.04-.19.04h-.02s0,0,0,0c-7.67,1.49-13.93,5.05-18.24,10.27-4.31,5.21-6.62,12.02-6.62,19.82,0,1.71.22,3.42.48,5.51.11.89.23,1.87.36,2.98l.06.51v.1s.15.59.15.59c.64,2.7,1.88,5.41,3.59,7.97,2.56,3.84,6.17,7.35,10.44,9.94,4.27,2.58,9.21,4.24,14.42,4.24,2.98,0,5.6-.53,7.8-.97l.24-.05h.04s.27-.08.27-.08c8.94-2.32,19.34-3.55,30.03-3.55,12.48,0,24.76,1.8,36.51,5.35l.49-1.61-.53,1.6c3.34,1.1,6.32,1.64,9.28,1.64,2.32,0,5.19-.38,8.29-1.67,3.1-1.28,6.4-3.46,9.57-6.97l-1.25-1.13,1.2,1.18c4.75-4.86,7.06-10.98,8.21-16.42,1.15-5.44,1.15-10.29,1.15-12.64,0-10.61-2.23-31.87-17.02-55.73-5.24-8.45-12.81-18.25-23.42-27.21-10.61-8.96-24.27-17.07-41.62-22.13h0c-10.91-3.23-21.17-4.68-33.11-4.68-30.04,0-58.49,11.38-80.07,32.03-22.13,21.17-34.33,49.77-34.33,80.43,0,31.1,12.52,59.88,35.22,80.93,21.36,19.8,50.33,31.14,79.57,31.15v-1.69Z"/>
    <path class="cls-3" d="M2422.71,137.25c10.47,0,19.77,1.16,30.24,4.26,27.91,8.14,47.3,25.59,59.32,44.97,12.02,19.38,15.51,37.99,15.51,50.4,0,3.88,0,15.51-6.59,22.1-3.1,3.49-6.59,5.43-10.47,5.43-1.94,0-3.88-.39-6.2-1.16-12.79-3.88-25.97-5.82-39.54-5.82-10.85,0-22.1,1.16-32.57,3.88-1.94.39-3.88.78-5.82.78-8.53,0-17.06-7.75-18.61-14.34-.39-3.49-.78-5.82-.78-7.37,0-6.98,2.71-17.45,16.67-20.16,13.57-2.33,27.14-3.88,40.71-3.88,3.1,0,6.59.39,10.08.39-9.3-21.71-30.24-32.57-51.56-32.57s-41.09,10.47-51.56,31.01c-4.26,8.14-6.2,16.28-6.2,24.04,0,3.49-.78,15.9,10.08,31.01,10.47,15.51,27.91,25.2,47.68,25.2,9.3,0,18.22-2.33,26.75-6.59,3.49-1.94,7.37-2.71,10.85-2.71,10.86,0,20.16,8.53,22.1,15.9,1.16,3.49,1.94,6.2,1.94,8.53,0,5.04-.78,13.57-13.18,19.77-15.9,7.75-31.79,11.24-48.46,11.24-54.28,0-104.67-41.87-104.67-101.96s48.46-102.35,104.29-102.35Z"/>
    <path class="cls-3" d="M2663.11,349.98v-1.69c-17,0-32.65-2.81-46.58-8.26-13.93-5.45-26.15-13.53-36.3-24.1-18.14-18.9-28.14-44.2-28.14-71.3,0-27.24,9.85-52.54,27.69-71.28,10.07-10.58,22.29-18.66,36.3-24.12,14.01-5.45,29.81-8.27,47.04-8.27h43.42c9.03,0,16.89,3.42,22.3,9.56,4.77,5.43,7.42,12.68,7.42,20.44,0,7.76-2.65,15.01-7.42,20.44-5.4,6.15-13.26,9.56-22.3,9.56h-43.42c-7.85,0-15.08,1.17-21.48,3.47-6.41,2.3-12,5.74-16.55,10.25-7.88,7.81-12.22,18.4-12.22,29.74,0,7.49,1.63,14.02,4.48,19.58,4.28,8.34,11.26,14.42,19.38,18.4,8.12,3.98,17.38,5.87,26.38,5.87h43.42c6.17,0,10.87,1.38,14.49,3.31,3.62,1.93,6.16,4.41,7.91,6.69,2.56,3.33,4.38,6.25,5.54,8.88,1.16,2.64,1.68,4.98,1.68,7.25,0,1.45.15,2.47.24,3.07.08.51.15.98.15,1.58,0,7.29-2.59,14.61-7.6,20.08-2.51,2.73-5.62,5.01-9.34,6.62-3.73,1.6-8.07,2.53-13.06,2.53h-43.42v3.37h43.42c5.41,0,10.23-1.01,14.39-2.81,6.25-2.69,11.02-7.13,14.2-12.39,3.18-5.26,4.78-11.35,4.78-17.4,0-.87-.11-1.57-.18-2.09-.09-.58-.2-1.33-.2-2.57,0-2.79-.65-5.63-1.96-8.61-1.31-2.98-3.28-6.11-5.95-9.58-1.99-2.58-4.89-5.42-9-7.61-4.1-2.19-9.4-3.71-16.08-3.7h-43.42c-11.38,0-23.19-3.23-32.04-9.88-4.43-3.33-8.12-7.49-10.72-12.56-2.6-5.07-4.11-11.04-4.11-18.04,0-10.48,3.99-20.17,11.22-27.35,4.18-4.14,9.32-7.32,15.31-9.47,5.99-2.15,12.82-3.27,20.34-3.27h43.42c9.88,0,18.76-3.79,24.83-10.71,5.34-6.09,8.26-14.14,8.26-22.66,0-8.52-2.91-16.58-8.26-22.66-6.07-6.93-14.95-10.72-24.83-10.71h-43.42c-17.6,0-33.82,2.87-48.27,8.49-14.44,5.62-27.09,13.99-37.51,24.93-18.47,19.4-28.62,45.56-28.62,73.61,0,27.93,10.32,54.1,29.08,73.64,10.5,10.93,23.14,19.29,37.51,24.91,14.36,5.62,30.44,8.49,47.81,8.49v-1.69Z"/>
    <path class="cls-3" d="M2663.11,147.71h43.42c30.63,0,30.63,46.52,0,46.52h-43.42c-76.37,0-75.6,100.8,0,100.8h43.42c7.37,0,13.18,2.33,17.06,7.37,3.88,5.04,5.82,8.92,5.82,12.02,0,2.71.39,4.26.39,4.65,0,11.24-7.75,22.48-23.26,22.48h-43.42c-69.01,0-104.29-48.46-104.29-96.92s34.12-96.92,104.29-96.92Z"/>
    <path class="cls-3" d="M2821.11,349.98v-1.69c-10.93,0-23.33-3.95-36.81-11.89h0s0,0,0,0c-7.83-4.54-13.33-9.13-18.44-15.39l-.08-.09-.09-.08c-1.97-1.81-4.06-4.27-5.65-7.5-1.59-3.23-2.7-7.23-2.7-12.2,0-4.01.96-9.01,3.28-13.73,2.32-4.72,5.96-9.17,11.34-12.27h0c4.46-2.54,8.64-2.84,11.52-2.84,3.36,0,6.93.95,10.79,2.97,3.86,2.02,8.01,5.12,12.46,9.35h-.01s.16.14.16.14l1.17-1.21-1.19,1.19c2.73,2.73,6.21,4.63,9.76,5.88,3.55,1.25,7.18,1.83,10.28,1.84h.22s0,0,0,0c1.24,0,4.81-.11,8.61-1.48,1.89-.68,3.85-1.69,5.57-3.2,1.71-1.5,3.17-3.53,3.99-6.13l-1.61-.51,1.6.53.04-.12h0c.25-.74.33-1.51.38-2.31.05-.8.05-1.65.05-2.53,0-1.92-.64-3.81-1.78-5.57-1.71-2.64-4.49-5.08-8.24-7.42-3.75-2.33-8.48-4.55-14.13-6.62h-.02s-.02-.02-.02-.02c-9.09-3.03-19.75-6.6-29.86-12.03-10.11-5.44-19.66-12.71-26.61-23.15h0s-.08-.11-.08-.11h0c-4.11-6.38-6.77-14.53-7.63-23.54l-.03-.32v-.32c0-.28-.03-.54-.06-.86-.03-.31-.07-.63-.1-.92-.12-1.03-.24-2.14-.24-3.27,0-4.66.66-10.29,2.29-16.22,2.44-8.89,7.02-18.43,14.71-26.43,7.69-8,18.46-14.52,33.49-17.41h.07s.07-.03.07-.03c5.81-1.62,12.49-2.48,19.31-2.48,3.47,0,9.71,0,17.76,1.46,8.05,1.46,17.9,4.38,28.52,10.23h0s.14.07.14.07l.82-1.47-.84,1.46c6.99,4.03,10.78,8.24,12.88,12.14,2.09,3.91,2.52,7.58,2.52,10.7,0,.14,0,.27,0,.41v.41s0,.01,0,.01c0,4.82-1.79,9.8-4.81,14.02-3.02,4.21-7.26,7.62-12,9.37l.58,1.58-.56-1.59-.25.09.56,1.59-.53-1.6c-3.82,1.27-7.28,1.9-10.27,1.9-5.53,0-10.31-1.27-14.8-3.88l-.05-.03-.06-.03c-2.86-1.4-6.29-2.53-9.83-3.33-3.54-.8-7.2-1.26-10.54-1.26h-.23l-.24-.02h-.06s-.06,0-.06,0v.03-.03s0,0,0,0v.03-.03c-.06,0-.21,0-.39,0-1.54,0-4.1.15-6.64,1.09-1.27.48-2.53,1.17-3.62,2.19-1.08,1.02-1.96,2.4-2.39,4.08h0s-.06.23-.06.23v.04s-.08.2-.08.2l-.02.21c-.01.16-.01.31-.02.48,0,.16,0,.33,0,.49v.4l.18.35c.27.53.71,1.1,1.48,1.78,1.16,1.03,3.09,2.33,6.48,4.02,3.39,1.69,8.26,3.75,15.28,6.24h0c9.8,3.48,20.13,7.5,29.66,13.23,9.52,5.73,18.23,13.16,24.87,23.48v.02s.03.02.03.02c4.85,7.07,7.59,13.3,9.12,18.48,1.53,5.19,1.86,9.33,1.86,12.25,0,1.48-.08,2.64-.15,3.5h0c-.01.17-.03.33-.03.49v.04s0,.04,0,.04c-.03,18.92-7.77,36.44-22.55,50.84h0s0,.01,0,.01c-14.24,14.21-32.69,21.7-53.58,21.71-.31,0-.6.02-.93.03-.74.03-1.73.07-2.91.07v3.37c1.26,0,2.31-.05,3.05-.08.35-.01.63-.03.78-.03,21.69,0,41.11-7.85,55.96-22.69l-1.19-1.19,1.18,1.21c15.35-14.93,23.55-33.39,23.57-53.25h-1.69s1.68.08,1.68.08c0-.09.02-.24.03-.42h0c.06-.87.16-2.14.16-3.75,0-3.18-.37-7.68-2-13.21-1.63-5.53-4.54-12.1-9.58-19.44l-1.39.95,1.42-.91c-6.97-10.85-16.12-18.63-25.97-24.55-9.85-5.93-20.4-10.01-30.26-13.52h0c-9.24-3.27-14.61-5.78-17.65-7.55-1.52-.88-2.46-1.58-3.01-2.06-.55-.48-.7-.76-.7-.76l-1.51.75h1.69c0-.15,0-.31,0-.44,0-.13,0-.25,0-.28l-1.68-.12,1.6.54.03-.1.02-.06.09-.35h0c.28-1.07.78-1.83,1.45-2.47,1-.95,2.46-1.58,3.97-1.93,1.5-.35,3-.44,3.98-.43.1,0,.18,0,.24,0h.07s.08,0,.08,0v-1.69l-.12,1.68.29.02h.06s.35,0,.35,0c3.03,0,6.47.42,9.8,1.17,3.33.75,6.54,1.82,9.09,3.07l.74-1.51-.85,1.46c4.99,2.92,10.45,4.35,16.5,4.34,3.46,0,7.26-.71,11.34-2.07h.01s.26-.1.26-.1h.01s.01,0,.01,0c5.47-2.02,10.19-5.85,13.58-10.57,3.38-4.71,5.44-10.33,5.45-15.98h0s0-.39,0-.39c0-.14,0-.29,0-.44,0-3.43-.49-7.76-2.92-12.29-2.43-4.54-6.76-9.21-14.17-13.47h-.01s-.15-.09-.15-.09h0c-10.98-6.06-21.19-9.09-29.55-10.6-8.35-1.52-14.86-1.52-18.37-1.51-7.1,0-14.07.89-20.22,2.6l.45,1.62-.32-1.66c-10.44,2-19.03,5.73-26,10.51-10.47,7.18-17.28,16.71-21.46,26.26-4.18,9.56-5.76,19.14-5.76,26.6,0,1.36.14,2.6.26,3.64.03.28.07.6.09.87.03.26.04.51.04.53v.48l.05.48c.9,9.47,3.7,18.13,8.15,25.06h0s.08.13.08.13h0c7.35,11.04,17.39,18.66,27.82,24.26,10.44,5.61,21.29,9.23,30.39,12.26l.53-1.6-.58,1.58c7.32,2.68,12.95,5.59,16.63,8.48,1.84,1.44,3.2,2.87,4.06,4.21.86,1.35,1.24,2.58,1.24,3.74,0,.88,0,1.68-.04,2.33-.04.66-.12,1.17-.22,1.45h0s-.04.12-.04.12v.02s0,0,0,0c-.63,1.99-1.69,3.46-3,4.61-1.96,1.73-4.54,2.73-6.85,3.25-2.31.53-4.33.59-5.09.59h0-.22s0,0,0,0c-2.68,0-5.99-.53-9.17-1.64-3.18-1.12-6.23-2.82-8.49-5.08h0s-.17-.17-.17-.17h0s0-.01,0-.01c-4.61-4.38-8.98-7.67-13.22-9.89-4.23-2.22-8.35-3.36-12.36-3.36-3.12,0-8.02.33-13.19,3.29h0c-6.03,3.48-10.12,8.49-12.68,13.71-2.56,5.23-3.62,10.67-3.62,15.21,0,5.48,1.24,10.03,3.05,13.69,1.81,3.67,4.17,6.46,6.39,8.5l1.14-1.24-1.31,1.07c5.35,6.57,11.27,11.49,19.37,16.17h-.01c13.83,8.14,26.77,12.35,38.52,12.35v-1.69Z"/>
    <path class="cls-3" d="M2763.69,192.58c0-17.45,10.08-46.91,45.36-53.5,5.43-1.55,11.63-2.33,17.83-2.33,7.75,0,24.04.39,43.03,10.86,12.79,7.37,12.02,14.73,12.02,17.83,0,6.59-5.04,14.34-12.41,17.06-3.49,1.16-6.2,1.55-8.14,1.55-3.88,0-7.75-.78-11.63-3.1-6.2-3.1-15.51-5.43-23.65-5.43,0,0-16.67-1.16-20.16,12.41-.39,1.16-.39,2.33-.39,3.49,0,6.98,9.3,12.41,27.91,19,17.45,6.2,38.77,14.73,51.17,34.12,12.02,17.45,9.69,28.69,9.69,31.01,0,16.67-6.59,32.57-20.55,46.13-13.96,13.96-31.4,19.77-48.85,19.77-3.49,0-15.51,1.94-37.22-10.85-7.37-4.26-12.41-8.53-17.06-14.34-5.82-5.04-6.59-11.24-6.59-15.12,0-3.1,1.16-14.34,11.24-20.16,2.71-1.55,5.43-1.94,8.14-1.94,4.65,0,10.86,3.1,18.61,10.47,6.59,6.59,16.67,9.69,24.81,9.69.78,0,19.77.39,24.81-15.51.78-2.33.78-4.65.78-6.98,0-9.69-8.53-18.61-28.69-25.97-18.61-6.2-40.71-13.96-53.11-32.57-3.49-5.43-5.82-12.41-6.59-20.55,0-1.55-.39-3.49-.39-5.04Z"/>
    <path class="cls-3" d="M3025.77,349.98v-1.69c-45.31,0-85.45-26.27-102.34-66.89v-.02s-.01,0-.01,0c-5.76-13.19-8.67-27.23-8.68-41.79,0-29.04,11.37-56.33,32.03-76.89,20.88-20.77,48.91-32.2,79-32.2,30.08,0,58.12,11.27,79.01,31.73,20.9,20.48,32.41,47.93,32.41,77.36,0,28.9-11.39,56.07-32.09,76.56-20.94,20.72-49.09,32.14-79.32,32.14v3.37c31.08,0,60.12-11.76,81.69-33.12,21.33-21.11,33.1-49.17,33.09-78.96,0-30.32-11.88-58.67-33.42-79.77-21.53-21.09-50.44-32.69-81.37-32.69-30.94,0-59.87,11.78-81.37,33.18-21.29,21.17-33.03,49.35-33.03,79.28,0,15,3.01,29.53,8.96,43.13l1.54-.67-1.56.65c17.43,41.91,58.84,68.97,105.46,68.97v-1.69ZM3025.77,192.2v-1.69c-9.84,0-18.8,2.26-26.33,6.53-7.53,4.27-13.61,10.55-17.68,18.49l-.05.1,1.5.77-1.49-.79c-3.93,7.43-5.88,15.77-5.88,24.09,0,9.22,2.39,18.43,7.15,26.34,4.31,7.17,10.31,12.76,17.58,16.52,7.27,3.77,15.8,5.72,25.2,5.72,7.72,0,14.85-1.3,21.17-3.84,6.33-2.55,11.85-6.35,16.35-11.33,8.04-8.87,12.43-20.86,12.43-33.72,0-12.86-4.39-24.85-12.43-33.72-4.5-4.97-10.03-8.78-16.35-11.33-6.33-2.55-13.45-3.84-21.17-3.84v3.37c7.35,0,14.03,1.23,19.91,3.6,5.88,2.37,10.96,5.87,15.12,10.46,7.43,8.2,11.56,19.36,11.56,31.46,0,12.1-4.13,23.26-11.56,31.46-4.16,4.59-9.24,8.09-15.12,10.46-5.88,2.37-12.56,3.6-19.91,3.6-8.94,0-16.91-1.85-23.65-5.34-6.73-3.49-12.24-8.62-16.24-15.27-4.43-7.35-6.67-15.96-6.67-24.6,0-7.8,1.83-15.61,5.48-22.52v-.02s.06-.1.06-.1h0c3.78-7.38,9.37-13.15,16.34-17.1,6.97-3.95,15.34-6.09,24.67-6.09v-1.69Z"/>
    <path class="cls-3" d="M2921.49,239.6c0-55.83,45.36-102.35,104.29-102.35s104.67,45.36,104.67,102.35-45.36,101.96-104.67,101.96c-44.58,0-81.03-26.36-96.15-62.8-5.43-12.41-8.14-25.59-8.14-39.16ZM3025.77,295.03c75.6,0,75.6-111.26,0-111.26-24.81,0-41.87,12.79-50.01,28.69-17.45,32.95-.39,82.58,50.01,82.58Z"/>
  </g>
  <g>
    <path class="cls-2" d="M1877.65,168.68l6.99-6.99c31.57-31.57,82.77-31.57,114.34,0l143.1,143.1c31.57,31.57,31.57,82.76,0,114.34l-6.99,6.99c-31.58,31.58-82.77,31.58-114.34,0l-143.1-143.1c-31.57-31.58-31.57-82.77,0-114.34"/>
    <path class="cls-1" d="M2013.17,25.83l-136.11,136.11c-33.5,33.5-33.5,87.83,0,121.33,1.27,1.27,2.58,2.47,3.9,3.65l113.52,113.52c-28.61-32.36-28.62-81.13-.02-113.5,1.34-1.18,2.65-2.39,3.93-3.66l136.11-136.11c33.5-33.5,33.5-87.83,0-121.33-33.51-33.5-87.83-33.5-121.33,0"/>
  </g>
</svg>