<?xml version="1.0" encoding="UTF-8"?>
<svg id="Layer_1" data-name="Layer 1" xmlns="http://www.w3.org/2000/svg" viewBox="0 0 166.22 217.39">
  <defs>
    <style>
      .cls-1 {
        fill: #ac8c64;
      }
    </style>
  </defs>
  <polygon points="95.34 0 95.34 26.89 61.53 26.89 61.53 163.32 34.68 163.32 34.68 26.89 .87 26.89 .87 0 95.34 0"/>
  <polygon points="129.16 0 129.16 136.43 162.97 136.43 162.97 163.32 102.3 163.32 102.3 0 129.16 0"/>
  <rect x="68.49" y="33.86" width="26.85" height="129.46"/>
  <polygon class="cls-1" points=".87 33.22 9.68 33.22 9.68 155.39 28.77 155.39 28.77 163.32 .87 163.32 .87 33.22"/>
  <polygon class="cls-1" points="162.97 130.1 154.16 130.1 154.16 7.93 135.07 7.93 135.07 0 162.97 0 162.97 130.1"/>
  <g>
    <path d="M7.1,176.8H0v-5.18h20.69v5.18h-7.06v17.92h-6.54v-17.92Z"/>
    <path d="M37.46,190.23h-9.77l-1.81,4.49h-6.67l10.2-23.1h6.44l10.23,23.1h-6.8l-1.82-4.49ZM35.54,185.41l-2.97-7.39-2.97,7.39h5.94Z"/>
    <path d="M67.46,189.54v5.18h-20.69v-4.09l11.65-13.83h-11.35v-5.18h19.9v4.09l-11.65,13.83h12.15Z"/>
    <path d="M91.15,180.16c0,5.25-3.96,8.51-10.26,8.51h-4.03v6.04h-6.53v-23.1h10.56c6.3,0,10.26,3.27,10.26,8.55ZM84.55,180.16c0-2.15-1.35-3.4-4.06-3.4h-3.63v6.77h3.63c2.71,0,4.06-1.25,4.06-3.37Z"/>
    <path d="M108.64,190.23h-9.77l-1.81,4.49h-6.67l10.2-23.1h6.44l10.23,23.1h-6.8l-1.82-4.49ZM106.72,185.41l-2.97-7.39-2.97,7.39h5.94Z"/>
    <path d="M117.58,183.17c0-7.03,5.38-12.01,12.71-12.01,4.26,0,7.69,1.55,9.93,4.36l-4.16,3.76c-1.45-1.75-3.23-2.71-5.45-2.71-3.8,0-6.44,2.64-6.44,6.6s2.64,6.6,6.44,6.6c2.21,0,3.99-.96,5.45-2.71l4.16,3.76c-2.24,2.81-5.68,4.36-9.93,4.36-7.33,0-12.71-4.98-12.71-12.01Z"/>
    <path d="M152.03,186.33l-2.44,2.61v5.78h-6.47v-23.1h6.47v9.6l8.94-9.6h7.19l-9.44,10.23,9.93,12.87h-7.59l-6.6-8.38Z"/>
  </g>
  <g>
    <path d="M1.05,201.63h2.97v10.5H1.05v-10.5Z"/>
    <path d="M16.12,201.63v10.5h-2.44l-4.63-5.59v5.59h-2.91v-10.5h2.44l4.64,5.59v-5.59h2.91Z"/>
    <path d="M18.22,201.63h4.96c3.48,0,5.86,2.03,5.86,5.25s-2.38,5.25-5.86,5.25h-4.96v-10.5ZM23.07,209.76c1.79,0,2.98-1.06,2.98-2.88s-1.2-2.88-2.98-2.88h-1.87v5.76h1.87Z"/>
    <path d="M30.52,207.45v-5.82h2.97v5.73c0,1.8.75,2.52,2,2.52s1.98-.72,1.98-2.52v-5.73h2.92v5.82c0,3.13-1.83,4.89-4.94,4.89s-4.93-1.75-4.93-4.89Z"/>
    <path d="M41.67,211.18l.98-2.19c.93.62,2.25,1.04,3.46,1.04s1.71-.35,1.71-.86c0-1.67-5.97-.45-5.97-4.35,0-1.88,1.53-3.41,4.65-3.41,1.36,0,2.77.32,3.81.92l-.92,2.21c-1-.54-1.99-.81-2.91-.81-1.25,0-1.69.42-1.69.94,0,1.61,5.95.41,5.95,4.28,0,1.83-1.53,3.39-4.65,3.39-1.73,0-3.43-.46-4.42-1.16Z"/>
    <path d="M54.19,203.98h-3.22v-2.36h9.4v2.36h-3.21v8.14h-2.97v-8.14Z"/>
    <path d="M66.07,209.34h-1.62v2.79h-2.97v-10.5h4.8c2.87,0,4.67,1.49,4.67,3.89,0,1.54-.75,2.68-2.06,3.31l2.27,3.3h-3.18l-1.91-2.79ZM66.1,203.97h-1.65v3.07h1.65c1.23,0,1.84-.57,1.84-1.53s-.61-1.54-1.84-1.54Z"/>
    <path d="M72.58,201.63h2.97v10.5h-2.97v-10.5Z"/>
    <path d="M86.1,209.83v2.29h-8.43v-10.5h8.23v2.29h-5.29v1.77h4.67v2.22h-4.67v1.92h5.49Z"/>
    <path d="M87.01,211.18l.98-2.19c.93.62,2.25,1.04,3.46,1.04s1.71-.35,1.71-.86c0-1.67-5.97-.45-5.97-4.35,0-1.88,1.53-3.41,4.65-3.41,1.36,0,2.77.32,3.81.92l-.92,2.21c-1-.54-1.99-.81-2.91-.81-1.25,0-1.69.42-1.69.94,0,1.61,5.95.41,5.95,4.28,0,1.83-1.53,3.39-4.65,3.39-1.73,0-3.43-.46-4.42-1.16Z"/>
    <path d="M101.82,201.63h2.97v8.15h5.01v2.35h-7.98v-10.5Z"/>
    <path d="M110.97,201.63h2.97v10.5h-2.97v-10.5Z"/>
    <path d="M125.53,212.13l-.03-5.56-2.7,4.53h-1.32l-2.68-4.38v5.42h-2.75v-10.5h2.44l3.69,6.06,3.6-6.06h2.44l.03,10.5h-2.73Z"/>
    <path d="M130.36,201.63h2.97v10.5h-2.97v-10.5Z"/>
    <path d="M137.68,203.98h-3.22v-2.36h9.4v2.36h-3.21v8.14h-2.97v-8.14Z"/>
    <path d="M153.4,209.83v2.29h-8.43v-10.5h8.23v2.29h-5.29v1.77h4.67v2.22h-4.67v1.92h5.49Z"/>
    <path d="M155.05,201.63h4.96c3.48,0,5.86,2.03,5.86,5.25s-2.38,5.25-5.86,5.25h-4.96v-10.5ZM159.9,209.76c1.79,0,2.98-1.06,2.98-2.88s-1.2-2.88-2.98-2.88h-1.87v5.76h1.87Z"/>
  </g>
  <rect x="0" y="216.23" width="165.88" height="1.16"/>
</svg>