<?xml version="1.0" encoding="UTF-8"?>
<svg id="Layer_1" xmlns="http://www.w3.org/2000/svg" xmlns:xlink="http://www.w3.org/1999/xlink" version="1.1" viewBox="0 0 38 35">
  <!-- Generator: Adobe Illustrator 29.1.0, SVG Export Plug-In . SVG Version: 2.1.0 Build 142)  -->
  <defs>
    <style>
      .st0 {
        fill: url(#linear-gradient1);
      }

      .st1 {
        fill: url(#linear-gradient);
      }

      .st2 {
        fill: #e9f4ff;
      }
    </style>
    <linearGradient id="linear-gradient" x1="7.2" y1="21.9" x2="27.1" y2="21.9" gradientUnits="userSpaceOnUse">
      <stop offset="0" stop-color="#2a80ff"/>
      <stop offset="1" stop-color="#00b6dc"/>
    </linearGradient>
    <linearGradient id="linear-gradient1" x1="7.1" y1="15.9" x2="26.7" y2="15.9" xlink:href="#linear-gradient"/>
  </defs>
  <path class="st2" d="M-318.5,785.1v-1.7c-14.7,0-28.4-2.5-40.5-7.2-12.2-4.8-22.9-11.9-31.9-21.1-16.4-16.8-25.4-39.3-25.4-63.3v-124.9c0-9,3.5-16.8,9.9-22.2,5.6-4.7,13-7.4,20.9-7.4s16.4,3.1,21.7,8.3c5.2,5.2,8.3,12.5,8.3,21.4v32.4h16.1c9,0,16.8,3.4,22.3,9.7,4.8,5.5,7.4,12.8,7.4,20.6s-2.6,14.9-7.5,20.5c-2.5,2.8-5.6,5.1-9.3,6.7-3.7,1.6-8,2.6-12.9,2.6h-16.2v1.7c-.1,8.2-.4,14.5-.6,18.3,0,.9-.1,1.7-.1,2.4v1.6c0,6.2.5,11.5,1.5,16.1s2.6,8.4,4.9,11.6c2.9,4.2,7.1,7.4,12.3,9.4,5.2,2,11.6,3,19.1,3s16.9,3.4,22.3,9.6c4.8,5.4,7.4,12.7,7.4,20.4s-2.7,15-7.4,20.4c-5.4,6.1-13.3,9.6-22.3,9.6v3.2c9.9,0,18.8-3.8,24.8-10.7,5.3-6.1,8.3-14.1,8.3-22.7s-2.9-16.6-8.3-22.7c-6.1-6.9-14.9-10.7-24.8-10.7s-13.2-.9-17.9-2.8c-4.7-1.8-8.2-4.5-10.8-8.2-1.9-2.8-3.4-6.2-4.4-10.5-1-4.2-1.4-9.3-1.4-15.4v-1.4c0-.7.1-1.5.1-2.4.2-3.8.4-10.1.6-18.4h-1.7v1.7h14.5c5.4,0,10.2-1,14.3-2.9,6.2-2.7,10.9-7.3,14.1-12.6,3.1-5.4,4.7-11.5,4.7-17.7s-2.9-16.6-8.3-22.8c-6.1-7-15-10.8-24.8-10.8h-12.8v-29c0-9.6-3.4-17.9-9.3-23.8-5.9-5.9-14.3-9.2-24-9.2s-16.8,2.9-23.1,8.2c-7.2,6.1-11.1,14.9-11.1,24.8v124.8c0,24.9,9.3,48.2,26.3,65.6,18.7,19.2,44.7,29.4,74.9,29.4v-1.5h0Z"/>
  <path class="st2" d="M-385.5,544c12,0,23.3,7.4,23.3,22.9v39.2h22.9c30.2,0,31,46.5,0,46.5h-22.9c0,17.1-.8,27.9-.8,30.6,0,21.7,5.4,46.9,44.6,46.9s30.6,46.5,0,46.5c-58.9,0-91.1-41.9-91.1-84.9v-124.8c-.1-15.1,11.9-22.9,24-22.9Z"/>
  <path class="st2" d="M-171.3,785.1v-1.7c-28.4,0-56.6-11-77.3-30.2-22-20.4-34.1-48.3-34.1-78.5s11.8-57.4,33.3-78c21-20.1,48.6-31.1,77.7-31.1s21.5,1.4,32.2,4.5h0c16.9,4.9,30.1,12.8,40.4,21.5s17.6,18.2,22.7,26.4c14.4,23.2,16.5,43.8,16.5,54s0,6.9-1.1,11.9c-1.1,5.1-3.2,10.5-7.3,14.8h0c-2.9,3.2-5.7,5-8.4,6.1-2.6,1.1-5.1,1.4-7,1.4s-5.1-.5-8.2-1.5h0c-12.1-3.6-24.7-5.5-37.5-5.5s-21.6,1.3-30.9,3.7h-.4c-2.2.4-4.6.9-7.1.9-6,0-11.7-2.6-16.3-6.3-2.3-1.9-4.2-4.1-5.8-6.3-1.5-2.3-2.6-4.6-3.1-6.9v-.4c-.1,0-.1-.4-.1-.4-.1-1.1-.3-2.1-.4-3-.3-2.1-.5-3.7-.5-5.1,0-7.1,2.1-13.1,5.8-17.7,3.8-4.6,9.2-7.7,16.3-9.1l-.3-1.7.3,1.7h.2l-.3-1.7.3,1.7c13.5-2.3,25.5-3.6,36.5-3.9h3.6c0,0-2.4-2.8-2.4-2.8-9-10.1-22.4-16-37.4-16s-19.2,2.5-27,7.2-14.2,11.5-18.6,20.2h0c-3.6,6.9-5.4,14-5.4,21h0v.7h0v.9c0,2.2.1,5.7,1.3,10,1.2,4.4,3.4,9.6,7.5,15.4l1.4-1-1.4,1v.2c.1,0,1.5-1,1.5-1l-1.4.9c9.5,14.1,24.9,22.2,42.1,22.2s15.9-2,23.6-5.8h0c5.2-2.9,10.5-3.5,14-3.5,7,0,13.5,2.7,18.5,6.6,5.1,3.9,8.7,9.2,10,14h0c.7,2.2,1.3,4,1.6,5.7.4,1.7.6,3.2.6,4.7s0,2.7-.3,4.7c-.4,2.9-1.4,6.6-3.8,10.3s-6.4,7.5-12.8,10.8h0c-16.5,8.1-33.3,12-51.5,12v3.7c18.7,0,36-4,53-12.3h0c4.6-2.3,8.1-5,10.8-7.7,4-4.2,6-8.6,7-12.4,1-3.8,1-7,1-8.7s-.2-3.6-.6-5.5-1-3.8-1.7-6l-1.6.5,1.6-.5c-1.6-5.7-5.6-11.4-11.2-15.8-5.6-4.3-12.7-7.3-20.6-7.3s-9.7.7-15.6,3.9l.8,1.5-.7-1.5c-7.3,3.6-14.7,5.5-22.1,5.5-16.1,0-30.4-7.5-39.3-20.7h0v-.2h-.1c-3.9-5.4-5.9-10.3-7-14.3s-1.2-7.2-1.2-9.2v-1.7h0c0-6.4,1.7-12.9,5-19.3h0c4.1-8.2,10.1-14.6,17.3-18.9s15.8-6.7,25.2-6.7c14.1,0,26.5,5.5,34.9,14.8l1.3-1.1v-1.7c-11.3.3-23.4,1.6-37,3.9h-.2c-7.7,1.5-13.9,5.1-18.2,10.3s-6.6,12-6.6,19.8.2,3.4.5,5.5c.1.9.2,1.9.4,3v.5c.1,0,.1,0,.1,0v.6c.7,2.7,2,5.4,3.7,8,2.6,3.8,6.2,7.4,10.4,9.9,4.3,2.6,9.2,4.2,14.4,4.2s5.6-.5,7.8-1h.5c8.9-2.4,19.3-3.7,30-3.7s24.8,1.8,36.5,5.3l.5-1.6-.5,1.7c3.3,1.1,6.3,1.6,9.3,1.6s5.2-.4,8.3-1.7c3.1-1.3,6.4-3.5,9.6-7l-1.3-1.1,1.2,1.2c4.7-4.9,7.1-11,8.2-16.4,1.2-5.4,1.1-10.3,1.1-12.6,0-10.6-2.2-31.9-17-55.7-5.2-8.5-12.8-18.3-23.4-27.3s-24.3-17.1-41.6-22.1h0c-10.9-3.2-21.2-4.7-33.1-4.7-30,0-58.5,11.4-80.1,32-22.1,21.2-34.3,49.8-34.3,80.4s12.5,59.9,35.2,80.9c21.4,19.8,50.3,31.1,79.6,31.1v-1.5h0Z"/>
  <path class="st2" d="M-171.7,572.3c10.5,0,19.8,1.2,30.2,4.3,27.9,8.1,47.3,25.6,59.3,45s15.5,38,15.5,50.4,0,15.5-6.6,22.1c-3.1,3.5-6.6,5.4-10.5,5.4s-3.9-.4-6.2-1.2c-12.8-3.9-26-5.8-39.5-5.8s-22.1,1.2-32.6,3.9c-1.9.4-3.9.8-5.8.8-8.5,0-17.1-7.8-18.6-14.3-.4-3.5-.8-5.8-.8-7.4,0-7,2.7-17.4,16.7-20.2,13.6-2.3,27.1-3.9,40.7-3.9s6.6.4,10.1.4c-9.3-21.7-30.2-32.6-51.6-32.6s-41.1,10.5-51.6,31c-4.3,8.1-6.2,16.3-6.2,24s-.8,15.9,10.1,31c10.5,15.5,27.9,25.2,47.7,25.2s18.2-2.3,26.8-6.6c3.5-1.9,7.4-2.7,10.9-2.7,10.9,0,20.2,8.5,22.1,15.9,1.2,3.5,1.9,6.2,1.9,8.5,0,5-.8,13.6-13.2,19.8-15.9,7.8-31.8,11.2-48.5,11.2-54.3,0-104.7-41.9-104.7-102,.1-58.3,48.6-102.2,104.4-102.2Z"/>
  <path class="st2" d="M68.7,785.1v-1.7c-17,0-32.7-2.8-46.6-8.3-13.9-5.4-26.1-13.5-36.3-24.1-18.1-18.9-28.1-44.2-28.1-71.3s9.8-52.5,27.7-71.3c10.1-10.6,22.3-18.7,36.3-24.1,14-5.5,29.8-8.3,47-8.3h43.4c9,0,16.9,3.4,22.3,9.6,4.8,5.4,7.4,12.7,7.4,20.4s-2.7,15-7.4,20.4c-5.4,6.1-13.3,9.6-22.3,9.6h-43.4c-7.9,0-15.1,1.2-21.5,3.5s-12,5.7-16.5,10.3c-7.9,7.8-12.2,18.4-12.2,29.7s1.6,14,4.5,19.6c4.3,8.3,11.3,14.4,19.4,18.4s17.4,5.9,26.4,5.9h43.4c6.2,0,10.9,1.4,14.5,3.3,3.6,1.9,6.2,4.4,7.9,6.7,2.6,3.3,4.4,6.2,5.5,8.9,1.2,2.6,1.7,5,1.7,7.2s.2,2.5.2,3.1c.1.5.1,1,.1,1.6,0,7.3-2.6,14.6-7.6,20.1-2.5,2.7-5.6,5-9.3,6.6s-8.1,2.5-13.1,2.5h-43.4v3.4h43.4c5.4,0,10.2-1,14.4-2.8,6.3-2.7,11-7.1,14.2-12.4,3.2-5.3,4.8-11.3,4.8-17.4s-.1-1.6-.2-2.1c-.1-.6-.2-1.3-.2-2.6,0-2.8-.7-5.6-2-8.6s-3.3-6.1-5.9-9.6c-2-2.6-4.9-5.4-9-7.6-4.1-2.2-9.4-3.7-16.1-3.7h-43.4c-11.4,0-23.2-3.2-32-9.9-4.4-3.3-8.1-7.5-10.7-12.6s-4.1-11-4.1-18c0-10.5,4-20.2,11.2-27.3,4.2-4.1,9.3-7.3,15.3-9.5s12.8-3.3,20.3-3.3h43.4c9.9,0,18.8-3.8,24.8-10.7,5.3-6.1,8.3-14.1,8.3-22.7s-2.9-16.6-8.3-22.7c-6.1-6.9-14.9-10.7-24.8-10.7h-43.4c-17.6,0-33.8,2.9-48.3,8.5-14.4,5.6-27.1,14-37.5,24.9-18.5,19.4-28.6,45.6-28.6,73.6s10.3,54.1,29.1,73.6c10.5,10.9,23.1,19.3,37.5,24.9,14.4,5.6,30.4,8.5,47.8,8.5v-1.5Z"/>
  <path class="st2" d="M68.7,582.8h43.4c30.6,0,30.6,46.5,0,46.5h-43.4c-76.4,0-75.6,100.8,0,100.8h43.4c7.4,0,13.2,2.3,17.1,7.4,3.9,5,5.8,8.9,5.8,12s.4,4.3.4,4.7c0,11.2-7.8,22.5-23.3,22.5h-43.4c-69,0-104.3-48.5-104.3-96.9,0-48.5,34.1-97,104.3-97Z"/>
  <path class="st2" d="M226.7,785.1v-1.7c-10.9,0-23.3-3.9-36.8-11.9h0c-7.8-4.5-13.3-9.1-18.4-15.4h-.1c0,0-.1-.2-.1-.2-2-1.8-4.1-4.3-5.6-7.5-1.6-3.2-2.7-7.2-2.7-12.2s1-9,3.3-13.7,6-9.2,11.3-12.3h0c4.5-2.5,8.6-2.8,11.5-2.8s6.9,1,10.8,3c3.9,2,8,5.1,12.5,9.3h0l.2.2,1.2-1.2-1.2,1.2c2.7,2.7,6.2,4.6,9.8,5.9,3.6,1.2,7.2,1.8,10.3,1.8h.2c1.2,0,4.8,0,8.6-1.5,1.9-.7,3.9-1.7,5.6-3.2,1.7-1.5,3.2-3.5,4-6.1l-1.6-.5,1.6.5h0c.2-.9.3-1.6.4-2.4v-2.5c0-1.9-.6-3.8-1.8-5.6-1.7-2.6-4.5-5.1-8.2-7.4-3.7-2.3-8.5-4.5-14.1-6.6h0c-9.1-3-19.7-6.6-29.9-12-10.1-5.4-19.7-12.7-26.6-23.2h-.1c-4.1-6.5-6.8-14.6-7.6-23.7v-.6c0-.3,0-.5-.1-.9,0-.3-.1-.6-.1-.9-.1-1-.2-2.1-.2-3.3,0-4.7.7-10.3,2.3-16.2,2.4-8.9,7-18.4,14.7-26.4s18.5-14.5,33.5-17.4h.2c5.8-1.6,12.5-2.5,19.3-2.5s9.7,0,17.8,1.5c8.1,1.5,17.9,4.4,28.5,10.2h.1c0,0,.8-1.4.8-1.4l-.8,1.5c7,4,10.8,8.2,12.9,12.1,2.1,3.9,2.5,7.6,2.5,10.7v.8h0c0,4.8-1.8,9.8-4.8,14s-7.3,7.6-12,9.4l.6,1.6-.6-1.6h-.2c0,0,.6,1.7.6,1.7l-.5-1.6c-3.8,1.3-7.3,1.9-10.3,1.9-5.5,0-10.3-1.3-14.8-3.9h-.2c-2.9-1.4-6.3-2.5-9.8-3.3s-7.2-1.3-10.5-1.3h-1c-1.5,0-4.1,0-6.6,1.1-1.3.5-2.5,1.2-3.6,2.2s-2,2.4-2.4,4.1h0v.2h-.1v.2c-.1,0-.1.2-.1.2v1.4l.2.4c.3.5.7,1.1,1.5,1.8,1.2,1,3.1,2.3,6.5,4s8.3,3.8,15.3,6.2h0c9.8,3.5,20.1,7.5,29.7,13.2,9.5,5.7,18.2,13.2,24.9,23.5h0c4.9,7.1,7.6,13.3,9.1,18.5s1.9,9.3,1.9,12.2-.1,2.6-.1,3.5h0v.5h0c0,18.9-7.8,36.4-22.5,50.8h0c-14.2,14.2-32.7,21.7-53.6,21.7h-.9c-.7,0-1.7,0-2.9,0v3.5c1.3,0,2.3,0,3,0h.8c21.7,0,41.1-7.9,56-22.7l-1.2-1.2,1.2,1.2c15.3-14.9,23.6-33.4,23.6-53.3h-1.7,1.7v-.3h0c.1-.9.2-2.1.2-3.7,0-3.2-.4-7.7-2-13.2s-4.5-12.1-9.6-19.4l-1.4,1,1.4-.9c-7-10.8-16.1-18.6-26-24.6-9.8-5.9-20.4-10-30.3-13.5h0c-9.2-3.3-14.6-5.8-17.6-7.5-1.5-.9-2.5-1.6-3-2.1s-.7-.8-.7-.8l-1.5.8h1.7v-.7h-1.7c0,0,1.6.4,1.6.4h0v-.5h.1c.3-1.1.8-1.8,1.4-2.5,1-1,2.5-1.6,4-1.9,1.5-.4,3-.4,4-.4h.4v-1.9,1.7c-.1,0,.2,0,.2,0h.5c3,0,6.5.4,9.8,1.2,3.3.7,6.5,1.8,9.1,3.1l.7-1.5-.9,1.5c5,2.9,10.5,4.3,16.5,4.3s7.3-.7,11.3-2.1h.3c5.5-2.1,10.2-6,13.6-10.7,3.4-4.7,5.4-10.3,5.4-16h0v-.8c0-3.4-.5-7.8-2.9-12.3s-6.8-9.2-14.2-13.5h-.1c-11-6.2-21.2-9.2-29.5-10.7-8.3-1.5-14.9-1.5-18.4-1.5-7.1,0-14.1.9-20.2,2.6l.5,1.6-.3-1.7c-10.4,2-19,5.7-26,10.5-10.5,7.2-17.3,16.7-21.5,26.3s-5.8,19.1-5.8,26.6.1,2.6.3,3.6c0,.3.1.6.1.9v.9h0v.6c.9,9.5,3.7,18.1,8.2,25.1h.1c7.4,11.1,17.4,18.7,27.8,24.4,10.4,5.6,21.3,9.2,30.4,12.3l.5-1.6-.6,1.6c7.3,2.7,12.9,5.6,16.6,8.5,1.8,1.4,3.2,2.9,4.1,4.2.9,1.3,1.2,2.6,1.2,3.7v2.3c0,.7-.1,1.2-.2,1.4h0c-.6,2.1-1.7,3.6-3,4.7-2,1.7-4.5,2.7-6.9,3.2-2.3.5-4.3.6-5.1.6h-.2c-2.7,0-6-.5-9.2-1.6s-6.2-2.8-8.5-5.1h0l-.2-.2h0c-4.6-4.4-9-7.7-13.2-9.9s-8.3-3.4-12.4-3.4-8,.3-13.2,3.3h0c-6,3.5-10.1,8.5-12.7,13.7-2.6,5.2-3.6,10.7-3.6,15.2s1.2,10,3,13.7,4.2,6.5,6.4,8.5l1.1-1.2-1.3,1.1c5.4,6.6,11.3,11.5,19.4,16.2h0c13.8,8.1,26.8,12.4,38.5,12.4v-1.6h-.6Z"/>
  <path class="st2" d="M169.3,627.7c0-17.4,10.1-46.9,45.4-53.5,5.4-1.6,11.6-2.3,17.8-2.3s24,.4,43,10.9c12.8,7.4,12,14.7,12,17.8,0,6.6-5,14.3-12.4,17.1-3.5,1.2-6.2,1.6-8.1,1.6-3.9,0-7.8-.8-11.6-3.1-6.2-3.1-15.5-5.4-23.6-5.4,0,0-16.7-1.2-20.2,12.4-.4,1.2-.4,2.3-.4,3.5,0,7,9.3,12.4,27.9,19,17.4,6.2,38.8,14.7,51.2,34.1,12,17.4,9.7,28.7,9.7,31,0,16.7-6.6,32.6-20.5,46.1-14,14-31.4,19.8-48.8,19.8s-15.5,1.9-37.2-10.9c-7.4-4.3-12.4-8.5-17.1-14.3-5.8-5-6.6-11.2-6.6-15.1s1.2-14.3,11.2-20.2c2.7-1.6,5.4-1.9,8.1-1.9,4.7,0,10.9,3.1,18.6,10.5,6.6,6.6,16.7,9.7,24.8,9.7s19.8.4,24.8-15.5c.8-2.3.8-4.7.8-7,0-9.7-8.5-18.6-28.7-26-18.6-6.2-40.7-14-53.1-32.6-3.5-5.4-5.8-12.4-6.6-20.5,0-1.7-.4-3.7-.4-5.2Z"/>
  <path class="st2" d="M431.4,785.1v-1.7c-45.3,0-85.5-26.3-102.3-66.9h0c-5.8-13.2-8.7-27.2-8.7-41.8,0-29,11.4-56.3,32-76.9,20.9-20.8,48.9-32.2,79-32.2s58.1,11.3,79,31.7c20.9,20.5,32.4,47.9,32.4,77.4s-11.4,56.1-32.1,76.6c-20.9,20.7-49.1,32.1-79.3,32.1v3.4c31.1,0,60.1-11.8,81.7-33.1,21.3-21.1,33.1-49.2,33.1-79s-11.9-58.7-33.4-79.8-50.4-32.7-81.4-32.7-59.9,11.8-81.4,33.2c-21.3,21.2-33,49.4-33,79.3s3,29.5,9,43.1l1.5-.7-1.6.6c17.4,41.9,58.8,69,105.5,69v-1.6h0ZM431.4,627.3v-1.7c-9.8,0-18.8,2.3-26.3,6.5-7.5,4.3-13.6,10.5-17.7,18.5h0c0,0,1.5.9,1.5.9l-1.5-.8c-3.9,7.4-5.9,15.8-5.9,24.1s2.4,18.4,7.2,26.3c4.3,7.2,10.3,12.8,17.6,16.5,7.3,3.8,15.8,5.7,25.2,5.7s14.8-1.3,21.2-3.8c6.3-2.5,11.9-6.4,16.4-11.3,8-8.9,12.4-20.9,12.4-33.7s-4.4-24.8-12.4-33.7c-4.5-5-10-8.8-16.4-11.3-6.3-2.5-13.4-3.8-21.2-3.8v3.3c7.3,0,14,1.2,19.9,3.6,5.9,2.4,11,5.9,15.1,10.5,7.4,8.2,11.6,19.4,11.6,31.5s-4.1,23.3-11.6,31.5c-4.2,4.6-9.2,8.1-15.1,10.5s-12.6,3.6-19.9,3.6-16.9-1.9-23.6-5.3c-6.7-3.5-12.2-8.6-16.2-15.3-4.4-7.3-6.7-16-6.7-24.6s1.8-15.6,5.5-22.5h.1c3.8-7.5,9.4-13.2,16.3-17.2,7-4,15.3-6.1,24.7-6.1v-1.9h-.2Z"/>
  <path class="st2" d="M327.1,674.7c0-55.8,45.4-102.3,104.3-102.3s104.7,45.4,104.7,102.3-45.4,102-104.7,102-81-26.4-96.1-62.8c-5.5-12.5-8.2-25.6-8.2-39.2ZM431.4,730.1c75.6,0,75.6-111.3,0-111.3s-41.9,12.8-50,28.7c-17.5,33-.4,82.6,50,82.6Z"/>
  <g>
    <path class="st1" d="M8.7,13.9l.4-.4c2-2,5.3-2,7.3,0l9.1,9.1c2,2,2,5.3,0,7.3l-.4.4c-2,2-5.3,2-7.3,0l-9.1-9.1c-2-2-2-5.3,0-7.3"/>
    <path class="st0" d="M17.4,4.8l-8.7,8.7c-2.1,2.1-2.1,5.6,0,7.7,0,0,.2.2.2.2l7.2,7.2c-1.8-2.1-1.8-5.2,0-7.2,0,0,.2-.2.3-.2l8.7-8.7c2.1-2.1,2.1-5.6,0-7.7-2.1-2.1-5.6-2.1-7.7,0"/>
  </g>
</svg>